<?xml version="1.0" standalone="no"?>
<!DOCTYPE svg PUBLIC "-//W3C//DTD SVG 20010904//EN"
 "http://www.w3.org/TR/2001/REC-SVG-20010904/DTD/svg10.dtd">
<svg version="1.0" xmlns="http://www.w3.org/2000/svg"
 width="318.000000pt" height="159.000000pt" viewBox="0 0 318.000000 159.000000"
 preserveAspectRatio="xMidYMid meet">

<g transform="translate(0.000000,159.000000) scale(0.100000,-0.100000)"
fill="#000000" stroke="none">
<path d="M0 1532 l0 -57 418 -208 417 -208 108 3 107 3 -525 262 -525 263 0
-58z"/>
<path d="M371 1586 c2 -2 217 -110 477 -240 l472 -236 0 240 0 240 -477 0
c-262 0 -474 -2 -472 -4z"/>
<path d="M1430 1270 l0 -320 -715 0 -715 0 0 -155 0 -155 715 0 715 0 0 -320
0 -320 160 0 160 0 0 320 0 320 715 0 715 0 0 155 0 155 -715 0 -715 0 0 320
0 320 -160 0 -160 0 0 -320z"/>
<path d="M1860 1350 l0 -240 473 236 c259 130 474 238 476 240 2 2 -210 4
-472 4 l-477 0 0 -240z"/>
<path d="M2420 1325 l-525 -264 115 0 115 0 525 264 525 264 -115 0 -115 0
-525 -264z"/>
<path d="M0 1235 l0 -175 347 0 c190 0 344 2 342 4 -2 2 -158 81 -346 175
l-343 171 0 -175z"/>
<path d="M2830 1235 l-345 -174 348 0 347 -1 0 175 c0 96 -1 175 -2 174 -2 0
-158 -78 -348 -174z"/>
<path d="M0 355 l0 -175 343 171 c188 94 344 173 346 175 2 2 -152 4 -342 4
l-347 0 0 -175z"/>
<path d="M530 265 l-525 -264 115 0 115 0 525 264 525 264 -115 0 -115 0 -525
-264z"/>
<path d="M2131 526 c2 -2 239 -121 527 -265 l522 -261 0 58 0 57 -415 208
-415 207 -112 0 c-61 0 -109 -2 -107 -4z"/>
<path d="M2491 526 c2 -2 158 -81 347 -175 l342 -171 0 175 0 175 -347 0
c-190 0 -344 -2 -342 -4z"/>
<path d="M840 240 l-475 -239 478 0 477 -1 0 240 c0 132 -1 240 -2 239 -2 0
-217 -108 -478 -239z"/>
<path d="M1860 240 l0 -240 477 0 c262 0 474 2 472 4 -2 2 -217 110 -476 240
l-473 236 0 -240z"/>
</g>
</svg>
